<svg width="16" height="17" viewBox="0 0 16 17" fill="none" xmlns="http://www.w3.org/2000/svg">
<path d="M10.7333 8.67206C11.38 8.21105 11.8333 7.45416 11.8333 6.75232C11.8333 5.19726 10.6667 4 9.16667 4H5V13.6331H9.69333C11.0867 13.6331 12.1667 12.4634 12.1667 11.0253C12.1667 9.97941 11.5933 9.08491 10.7333 8.67206ZM7 5.7202H9C9.55333 5.7202 10 6.18121 10 6.75232C10 7.32343 9.55333 7.78444 9 7.78444H7V5.7202ZM9.33333 11.9129H7V9.84868H9.33333C9.88667 9.84868 10.3333 10.3097 10.3333 10.8808C10.3333 11.4519 9.88667 11.9129 9.33333 11.9129Z" fill="black"/>
</svg>
