<svg width="16" height="17" viewBox="0 0 16 17" fill="none" xmlns="http://www.w3.org/2000/svg">
<path d="M4.5667 5.90365C4.5667 4.03895 6.30004 3.09628 8.16004 3.09628C9.25337 3.09628 10.16 3.43344 10.76 3.97703C11.2734 4.42428 11.7334 5.1674 11.7334 6.2064H9.7267C9.7267 5.9931 9.69337 5.80044 9.6267 5.62154C9.43337 5.02979 8.8267 4.74079 8.1267 4.74079C6.8867 4.74079 6.5667 5.44264 6.5667 5.91053C6.5667 6.24081 6.73337 6.51604 7.06004 6.74311C7.31337 6.91513 7.57337 7.07339 8.00004 7.22476H4.9267C4.7867 6.99082 4.5667 6.61237 4.5667 5.90365ZM14 9.289V7.91284H2.00004V9.289H8.41337C9.18004 9.59864 9.72004 9.80506 9.72004 10.6445C9.72004 11.3326 9.18004 11.7936 8.20004 11.7936C7.17337 11.7936 6.2467 11.4221 6.2467 10.0665H4.2667C4.2667 10.445 4.32004 10.8441 4.4267 11.1537C4.9667 12.7294 6.62004 13.4244 8.2067 13.4244C9.72004 13.4244 11.74 12.812 11.74 10.6376C11.74 10.4312 11.7334 9.83947 11.42 9.30276H14V9.289Z" fill="black"/>
</svg>
