<svg width="16" height="17" viewBox="0 0 16 17" fill="none" xmlns="http://www.w3.org/2000/svg">
<path d="M10.9375 5.27527L7.9125 3.4701C7.6595 3.31683 7.3405 3.31683 7.0875 3.4701L4.0625 5.27527C3.8095 5.42854 3.65 5.7067 3.65 6.01324V9.61792C3.65 9.92446 3.8095 10.2026 4.0625 10.3559L7.0875 12.1611C7.3405 12.3143 7.6595 12.3143 7.9125 12.1611L10.9375 10.3559C11.1905 10.2026 11.35 9.92446 11.35 9.61792V6.01324C11.35 5.7067 11.1905 5.42854 10.9375 5.27527ZM4.75 9.45329V6.83068L6.95 8.14766V10.7646L4.75 9.45329ZM7.5 7.1656L5.3 5.84862L7.5 4.53731L9.7 5.84862L7.5 7.1656ZM8.05 10.7646V8.14766L10.25 6.83068V9.45329L8.05 10.7646ZM4.75 2.09634H2.825C2.3685 2.09634 2 2.47668 2 2.94784V4.93467H3.1V3.23168H4.75V2.09634ZM10.25 2.09634H12.175C12.6315 2.09634 13 2.47668 13 2.94784V4.93467H11.9V3.23168H10.25V2.09634ZM4.75 13.4497H2.825C2.3685 13.4497 2 13.0693 2 12.5982V10.6113H3.1V12.3143H4.75V13.4497ZM10.25 13.4497H12.175C12.6315 13.4497 13 13.0693 13 12.5982V10.6113H11.9V12.3143H10.25V13.4497Z" fill="black"/>
</svg>
